<svg width="500" height="200" viewBox="0 0 500 200" xmlns="http://www.w3.org/2000/svg">
  <!-- 'currentColor' sorgt dafür, dass das Logo die CSS-Farbe des Eltern-Elements erbt -->
  <g fill="currentColor" color="#000000">
    
    <!-- Körper -->
    <path d="M60,115 
             C65,115 80,95 100,90 
             C130,82 170,82 210,100 
             C240,115 250,110 250,110 
             C250,110 220,90 180,75 
             C140,60 100,65 80,80 
             C70,70 65,65 55,75 
             C45,65 30,65 30,80 
             C20,85 45,115 60,115 Z" />

    <!-- Auge -->
    <circle cx="55" cy="92" r="3" />

    <!-- Langer Schwanz -->
    <path d="M248,109
             C290,120 310,145 360,145
             C410,145 440,105 480,85
             C495,78 505,75 510,70
             C500,75 485,90 470,100
             C430,125 390,158 350,158
             C290,158 265,125 248,109 Z" />

    <!-- Vorderbein -->
    <path d="M85,105 
             C90,112 95,120 108,118 
             C115,117 112,125 108,128 
             C90,135 78,120 75,110 Z" />

    <!-- Hinterbein -->
    <path d="M205,105 
             C210,120 205,135 195,145 
             C190,150 210,150 215,148 
             C230,140 235,120 225,105 Z" />

    <!-- Barthaare -->
    <path d="M45,100 C30,96 10,92 2,94 L2,95 C10,93 30,97 45,101 Z" />
    <path d="M48,104 C35,107 15,110 5,112 L5,113 C15,111 35,108 48,105 Z" />
    <path d="M50,108 C40,115 25,122 20,126 L21,127 C26,123 41,116 50,109 Z" />

  </g>
</svg>